<svg xmlns="http://www.w3.org/2000/svg" data-v-423bf9ae="" viewBox="0 0 556 90" class="iconLeft"><defs data-v-423bf9ae=""><linearGradient data-v-423bf9ae="" gradientTransform="rotate(25)" id="e6fadecc-0926-479b-b68f-b0fc975c8858" x1="0%" y1="0%" x2="100%" y2="0%"><stop data-v-423bf9ae="" offset="0%" style="stop-color: rgb(255, 255, 255); stop-opacity: 1;"></stop><stop data-v-423bf9ae="" offset="100%" style="stop-color: rgb(255, 255, 255); stop-opacity: 1;"></stop></linearGradient></defs><g data-v-423bf9ae="" id="0323f282-4003-4e70-ad93-6f07f891b3f7" fill="url(#e6fadecc-0926-479b-b68f-b0fc975c8858)" transform="matrix(5.813953660298242,0,0,5.813953660298242,108.0814056239333,0.9302297911601585)"><path d="M5.46 12.67L5.46 12.67Q3.28 12.67 1.81 11.20L1.81 11.20L1.81 11.20Q0.33 9.73 0.33 7.53L0.33 7.53L0.33 7.53Q0.34 5.37 1.81 3.89L1.81 3.89L1.81 3.89Q3.28 2.42 5.46 2.42L5.46 2.42L5.46 2.42Q7.65 2.42 9.22 3.79L9.22 3.79L7.85 5.28L7.85 5.28Q6.81 4.46 5.46 4.46L5.46 4.46L5.46 4.46Q4.07 4.47 3.23 5.33L3.23 5.33L3.23 5.33Q2.39 6.18 2.39 7.51L2.39 7.51L2.39 7.51Q2.39 8.94 3.24 9.78L3.24 9.78L3.24 9.78Q4.09 10.62 5.47 10.62L5.47 10.62L5.47 10.62Q6.85 10.62 7.85 9.81L7.85 9.81L9.22 11.31L9.22 11.31Q7.66 12.67 5.46 12.67L5.46 12.67ZM14.36 12.74L14.36 12.74Q12.87 12.74 11.87 11.74L11.87 11.74L11.87 11.74Q10.88 10.74 10.88 9.26L10.88 9.26L10.88 9.26Q10.88 7.77 11.87 6.77L11.87 6.77L11.87 6.77Q12.87 5.77 14.36 5.77L14.36 5.77L14.36 5.77Q15.85 5.77 16.85 6.77L16.85 6.77L16.85 6.77Q17.85 7.77 17.85 9.26L17.85 9.26L17.85 9.26Q17.85 10.75 16.85 11.74L16.85 11.74L16.85 11.74Q15.85 12.74 14.36 12.74L14.36 12.74ZM14.36 11.09L14.36 11.09L14.36 11.09Q15.13 11.09 15.62 10.56L15.62 10.56L15.62 10.56Q16.11 10.04 16.11 9.26L16.11 9.26L16.11 9.26Q16.11 8.48 15.62 7.96L15.62 7.96L15.62 7.96Q15.13 7.43 14.35 7.43L14.35 7.43L14.35 7.43Q13.58 7.43 13.09 7.96L13.09 7.96L13.09 7.96Q12.61 8.48 12.61 9.26L12.61 9.26L12.61 9.26Q12.61 10.04 13.09 10.56L13.09 10.56L13.09 10.56Q13.58 11.09 14.36 11.09ZM21.06 12.67L19.15 12.67L19.15 2.42L21.06 2.42L21.06 12.67ZM26.15 12.74L26.15 12.74Q24.66 12.74 23.67 11.74L23.67 11.74L23.67 11.74Q22.67 10.74 22.67 9.26L22.67 9.26L22.67 9.26Q22.67 7.77 23.67 6.77L23.67 6.77L23.67 6.77Q24.66 5.77 26.15 5.77L26.15 5.77L26.15 5.77Q27.64 5.77 28.64 6.77L28.64 6.77L28.64 6.77Q29.64 7.77 29.64 9.26L29.64 9.26L29.64 9.26Q29.64 10.75 28.64 11.74L28.64 11.74L28.64 11.74Q27.64 12.74 26.15 12.74L26.15 12.74ZM26.15 11.09L26.15 11.09L26.15 11.09Q26.93 11.09 27.41 10.56L27.41 10.56L27.41 10.56Q27.90 10.04 27.90 9.26L27.90 9.26L27.90 9.26Q27.90 8.48 27.41 7.96L27.41 7.96L27.41 7.96Q26.93 7.43 26.14 7.43L26.14 7.43L26.14 7.43Q25.37 7.43 24.88 7.96L24.88 7.96L24.88 7.96Q24.40 8.48 24.40 9.26L24.40 9.26L24.40 9.26Q24.40 10.04 24.88 10.56L24.88 10.56L24.88 10.56Q25.37 11.09 26.15 11.09ZM32.70 5.83L32.70 6.59L32.70 6.59Q33.43 5.84 34.49 5.84L34.49 5.84L34.49 5.84Q34.82 5.84 35.12 5.89L35.12 5.89L34.82 7.78L34.82 7.78Q34.49 7.48 33.87 7.46L33.87 7.46L33.87 7.46Q33.17 7.51 32.70 8.47L32.70 8.47L32.70 12.67L30.79 12.67L30.79 6.04L32.70 5.83ZM37.26 7.82L36.51 6.66L36.51 6.66Q37.81 5.84 39.52 5.84L39.52 5.84L39.52 5.84Q40.75 5.84 41.47 6.52L41.47 6.52L41.47 6.52Q42.18 7.21 42.18 8.57L42.18 8.57L42.18 12.67L40.27 12.67L40.27 12.13L40.27 12.13Q39.44 12.67 38.77 12.67L38.77 12.67L38.77 12.67Q37.40 12.67 36.72 12.09L36.72 12.09L36.72 12.09Q36.03 11.51 36.03 10.49L36.03 10.49L36.03 10.49Q36.03 9.53 36.68 8.78L36.68 8.78L36.68 8.78Q37.32 8.03 38.77 8.03L38.77 8.03L38.77 8.03Q39.43 8.03 40.27 8.44L40.27 8.44L40.27 8.23L40.27 8.23Q40.26 7.48 39.18 7.41L39.18 7.41L39.18 7.41Q37.95 7.41 37.26 7.82L37.26 7.82ZM40.27 10.62L40.27 10.62L40.27 9.85L40.27 9.85Q40.00 9.32 38.97 9.32L38.97 9.32L38.97 9.32Q37.74 9.46 37.67 10.28L37.67 10.28L37.67 10.28Q37.74 11.09 38.97 11.16L38.97 11.16L38.97 11.16Q40.00 11.16 40.27 10.62ZM47.39 2.42L47.39 2.42Q48.82 2.42 49.60 2.76L49.60 2.76L49.60 2.76Q50.39 3.10 51.07 3.79L51.07 3.79L49.70 5.15L49.70 5.15Q49.02 4.33 47.79 4.33L47.79 4.33L47.79 4.33Q46.56 4.33 46.22 4.92L46.22 4.92L46.22 4.92Q45.88 5.50 46.22 5.91L46.22 5.91L46.22 5.91Q46.56 6.32 47.79 6.52L47.79 6.52L47.79 6.52Q49.09 6.66 50.15 7.38L50.15 7.38L50.15 7.38Q51.21 8.09 51.21 9.67L51.21 9.67L51.21 9.67Q51.21 10.90 50.08 11.79L50.08 11.79L50.08 11.79Q48.95 12.67 47.44 12.67L47.44 12.67L47.44 12.67Q46.01 12.67 45.06 12.26L45.06 12.26L45.06 12.26Q44.10 11.85 43.42 11.17L43.42 11.17L44.78 9.80L44.78 9.80Q45.47 10.62 47.11 10.76L47.11 10.76L47.11 10.76Q48.47 10.76 48.81 10.18L48.81 10.18L48.81 10.18Q49.15 9.60 48.81 9.02L48.81 9.02L48.81 9.02Q48.47 8.44 47.11 8.30L47.11 8.30L47.11 8.30Q45.88 8.16 44.85 7.55L44.85 7.55L44.85 7.55Q43.83 6.93 43.83 5.43L43.83 5.43L43.83 5.43Q43.83 4.07 44.99 3.24L44.99 3.24L44.99 3.24Q46.16 2.42 47.39 2.42L47.39 2.42ZM54.80 8.05L54.80 8.05L54.80 12.67L52.88 12.67L52.88 2.42L54.80 2.42L54.80 6.45L54.80 6.45Q55.49 5.84 56.44 5.84L56.44 5.84L56.44 5.84Q57.74 5.84 58.42 6.62L58.42 6.62L58.42 6.62Q59.10 7.41 59.10 8.44L59.10 8.44L59.10 12.67L57.19 12.67L57.19 8.91L57.19 8.91Q57.19 8.23 56.85 7.85L56.85 7.85L56.85 7.85Q56.51 7.48 55.82 7.46L55.82 7.46L55.82 7.46Q55.22 7.50 54.80 8.05ZM63.49 12.74L63.49 12.74Q62.00 12.74 61.00 11.74L61.00 11.74L61.00 11.74Q60.01 10.74 60.01 9.26L60.01 9.26L60.01 9.26Q60.01 7.77 61.00 6.77L61.00 6.77L61.00 6.77Q62.00 5.77 63.49 5.77L63.49 5.77L63.49 5.77Q64.98 5.77 65.98 6.77L65.98 6.77L65.98 6.77Q66.98 7.77 66.98 9.26L66.98 9.26L66.98 9.26Q66.98 10.75 65.98 11.74L65.98 11.74L65.98 11.74Q64.98 12.74 63.49 12.74L63.49 12.74ZM63.49 11.09L63.49 11.09L63.49 11.09Q64.26 11.09 64.75 10.56L64.75 10.56L64.75 10.56Q65.24 10.04 65.24 9.26L65.24 9.26L65.24 9.26Q65.24 8.48 64.75 7.96L64.75 7.96L64.75 7.96Q64.26 7.43 63.48 7.43L63.48 7.43L63.48 7.43Q62.71 7.43 62.22 7.96L62.22 7.96L62.22 7.96Q61.74 8.48 61.74 9.26L61.74 9.26L61.74 9.26Q61.74 10.04 62.22 10.56L62.22 10.56L62.22 10.56Q62.71 11.09 63.49 11.09ZM72.33 9.25L73.36 12.67L75.07 12.67L76.89 5.83L75.09 5.83L74.04 9.94L73.06 5.83L71.65 5.83L70.62 9.87L69.56 5.83L67.76 5.83L69.60 12.67L71.31 12.67L72.33 9.25Z"></path></g><g data-v-423bf9ae="" id="63c5a8e9-89c2-4986-b77c-191bf97fadf4" transform="matrix(1.089588297211632,0,0,1.089588297211632,-3.331476703954941,-3.331476703954941)" stroke="none" fill="#00C9FF"><path d="M45 86.3C22.2 86.3 3.7 67.8 3.7 45S22.2 3.7 45 3.7c22.8 0 41.3 18.5 41.3 41.3 0 9.6-3.3 18.9-9.4 26.3-1.8 2.1-4.9 2.4-7 .7-2.1-1.8-2.4-4.9-.7-7 4.6-5.6 7.1-12.6 7.1-19.9 0-17.2-14-31.3-31.3-31.3-17.2 0-31.3 14-31.3 31.3s14 31.3 31.3 31.3c2.8 0 5 2.2 5 5s-2.2 4.9-5 4.9z"></path><path d="M58 23.4c-2.2 0-4.4.8-6 2.5-3.3 3.3-3.3 8.7 0 12.1 1.7 1.7 3.8 2.5 6 2.5s4.4-.8 6-2.5c3.3-3.3 3.3-8.7 0-12.1-1.6-1.6-3.8-2.5-6-2.5zM32 49.5c-2.2 0-4.4.8-6 2.5-3.3 3.3-3.3 8.7 0 12.1 1.7 1.7 3.8 2.5 6 2.5s4.4-.8 6-2.5c3.3-3.3 3.3-8.7 0-12.1-1.7-1.7-3.8-2.5-6-2.5zM58 49.5c-2.2 0-4.4.8-6 2.5-3.3 3.3-3.3 8.7 0 12.1 1.7 1.7 3.8 2.5 6 2.5s4.4-.8 6-2.5c3.3-3.3 3.3-8.7 0-12.1-1.6-1.7-3.8-2.5-6-2.5zM32 23.4c-2.2 0-4.4.8-6 2.5-3.3 3.3-3.3 8.7 0 12.1 1.7 1.7 3.9 2.5 6 2.5 2.2 0 4.4-.8 6-2.5 3.3-3.3 3.3-8.7 0-12.1-1.7-1.6-3.8-2.5-6-2.5z"></path><g><path d="M45 41.2c-1 0-1.9.4-2.7 1.1-1.5 1.5-1.5 3.9 0 5.4.7.7 1.7 1.1 2.7 1.1 1 0 1.9-.4 2.7-1.1 1.5-1.5 1.5-3.9 0-5.4-.8-.7-1.7-1.1-2.7-1.1z"></path></g><path d="M81.3 86.3H44.6c-2.8 0-5-2.2-5-5s2.2-5 5-5h36.7c2.8 0 5 2.2 5 5s-2.3 5-5 5z"></path></g></svg>